# xmcd CD database file
#
# Track frame offsets:
#	150
#	16433
#	27915
#	41225
#	62805
#	77558
#	94903
#	108868
#	122643
#	139793
#	157288
#	169785
#	186000
#	199895
#
# Disc length: 2847 seconds
#
# Revision: 0
# Processed by: cddbd v1.4PL0 Copyright (c) Steve Scherf et al.
# Submitted via: CDex 1.40Release
#
DISCID=c00b1d0e
DTITLE=Willie Nelson - Willie and Friends
DYEAR=1995
DGENRE=Country
TTITLE0=The Twentieth Century Is Almost Over
TTITLE1=Hello Walls
TTITLE2=You're gonna Love Yourself (In The Morning)
TTITLE3=Pancho And Lefty
TTITLE4=Everything Is Beautiful (In It's Own Way)
TTITLE5=Faded Love
TTITLE6=Half A Man
TTITLE7=Heartbreak Hotel
TTITLE8=Take It To The Limit
TTITLE9=Seven Spanish Angels
TTITLE10=How Do You Feel About Foolin' Around
TTITLE11=Slow Movin' Outlaw
TTITLE12=Are There Any More Real Cowboys
TTITLE13=Highwayman
EXTD=YEAR: 1995 ID3G: 2
EXTT0=
EXTT1=
EXTT2=
EXTT3=
EXTT4=
EXTT5=
EXTT6=
EXTT7=
EXTT8=
EXTT9=
EXTT10=
EXTT11=
EXTT12=
EXTT13=
PLAYORDER=
